<mxfile host="app.diagrams.net" modified="2024-03-19T16:41:22.206Z" agent="Mozilla/5.0 (Macintosh; Intel Mac OS X 10_15_7) AppleWebKit/537.36 (KHTML, like Gecko) Chrome/122.0.0.0 Safari/537.36" version="24.0.7" etag="ZtcAvBYE2oeNmrPJMQqa" type="github">
  <diagram name="Page-1" id="zDfY42WJwcF9_w82qy2u">
    <mxGraphModel>
      <root>
        <mxCell id="0" />
        <mxCell id="1" parent="0" />
      </root>
    </mxGraphModel>
  </diagram>
</mxfile>
